<svg width="936" height="222" viewBox="0 0 936 222" fill="none" xmlns="http://www.w3.org/2000/svg">
<line x1="1.46967" y1="118.419" x2="118.419" y2="1.46968" stroke="#252525" stroke-width="1.5"/>
<line x1="1.46967" y1="133.338" x2="118.419" y2="16.3881" stroke="#252525" stroke-width="1.5"/>
<line x1="1.46967" y1="147.191" x2="118.419" y2="30.2409" stroke="#252525" stroke-width="1.5"/>
<line x1="1.46967" y1="161.044" x2="118.419" y2="44.0937" stroke="#252525" stroke-width="1.5"/>
<line x1="1.46967" y1="177.028" x2="118.419" y2="60.0777" stroke="#252525" stroke-width="1.5"/>
<line x1="1.46967" y1="191.946" x2="118.419" y2="74.9962" stroke="#252525" stroke-width="1.5"/>
<line x1="1.46967" y1="205.799" x2="118.419" y2="88.849" stroke="#252525" stroke-width="1.5"/>
<line x1="1.46967" y1="219.652" x2="118.419" y2="102.702" stroke="#252525" stroke-width="1.5"/>
<line y1="-0.75" x2="165.392" y2="-0.75" transform="matrix(0.707107 0.707107 0.707107 -0.707107 2 103.232)" stroke="#252525" stroke-width="1.5"/>
<line y1="-0.75" x2="165.392" y2="-0.75" transform="matrix(0.707107 0.707107 0.707107 -0.707107 2 88.3138)" stroke="#252525" stroke-width="1.5"/>
<line y1="-0.75" x2="165.392" y2="-0.75" transform="matrix(0.707107 0.707107 0.707107 -0.707107 2 74.4609)" stroke="#252525" stroke-width="1.5"/>
<line y1="-0.75" x2="165.392" y2="-0.75" transform="matrix(0.707107 0.707107 0.707107 -0.707107 2 60.6081)" stroke="#252525" stroke-width="1.5"/>
<line y1="-0.75" x2="165.392" y2="-0.75" transform="matrix(0.707107 0.707107 0.707107 -0.707107 2 44.6241)" stroke="#252525" stroke-width="1.5"/>
<line y1="-0.75" x2="165.392" y2="-0.75" transform="matrix(0.707107 0.707107 0.707107 -0.707107 2 29.7057)" stroke="#252525" stroke-width="1.5"/>
<line y1="-0.75" x2="165.392" y2="-0.75" transform="matrix(0.707107 0.707107 0.707107 -0.707107 2 15.8528)" stroke="#252525" stroke-width="1.5"/>
<line y1="-0.75" x2="165.392" y2="-0.75" transform="matrix(0.707107 0.707107 0.707107 -0.707107 2 2)" stroke="#252525" stroke-width="1.5"/>
<line x1="118.153" y1="118.419" x2="235.103" y2="1.46968" stroke="#252525" stroke-width="1.5"/>
<line x1="118.153" y1="133.338" x2="235.103" y2="16.3881" stroke="#252525" stroke-width="1.5"/>
<line x1="118.153" y1="147.191" x2="235.103" y2="30.2409" stroke="#252525" stroke-width="1.5"/>
<line x1="118.153" y1="161.044" x2="235.103" y2="44.0937" stroke="#252525" stroke-width="1.5"/>
<line x1="118.153" y1="177.028" x2="235.103" y2="60.0777" stroke="#252525" stroke-width="1.5"/>
<line x1="118.153" y1="191.946" x2="235.103" y2="74.9962" stroke="#252525" stroke-width="1.5"/>
<line x1="118.153" y1="205.799" x2="235.103" y2="88.849" stroke="#252525" stroke-width="1.5"/>
<line x1="118.153" y1="219.652" x2="235.103" y2="102.702" stroke="#252525" stroke-width="1.5"/>
<line y1="-0.75" x2="165.392" y2="-0.75" transform="matrix(0.707107 0.707107 0.707107 -0.707107 118.683 103.232)" stroke="#252525" stroke-width="1.5"/>
<line y1="-0.75" x2="165.392" y2="-0.75" transform="matrix(0.707107 0.707107 0.707107 -0.707107 118.683 88.3138)" stroke="#252525" stroke-width="1.5"/>
<line y1="-0.75" x2="165.392" y2="-0.75" transform="matrix(0.707107 0.707107 0.707107 -0.707107 118.683 74.4609)" stroke="#252525" stroke-width="1.5"/>
<line y1="-0.75" x2="165.392" y2="-0.75" transform="matrix(0.707107 0.707107 0.707107 -0.707107 118.683 60.6081)" stroke="#252525" stroke-width="1.5"/>
<line y1="-0.75" x2="165.392" y2="-0.75" transform="matrix(0.707107 0.707107 0.707107 -0.707107 118.683 44.6241)" stroke="#252525" stroke-width="1.5"/>
<line y1="-0.75" x2="165.392" y2="-0.75" transform="matrix(0.707107 0.707107 0.707107 -0.707107 118.683 29.7057)" stroke="#252525" stroke-width="1.5"/>
<line y1="-0.75" x2="165.392" y2="-0.75" transform="matrix(0.707107 0.707107 0.707107 -0.707107 118.683 15.8528)" stroke="#252525" stroke-width="1.5"/>
<line y1="-0.75" x2="165.392" y2="-0.75" transform="matrix(0.707107 0.707107 0.707107 -0.707107 118.683 2)" stroke="#252525" stroke-width="1.5"/>
<line x1="234.836" y1="118.419" x2="351.786" y2="1.46968" stroke="#252525" stroke-width="1.5"/>
<line x1="234.836" y1="133.338" x2="351.786" y2="16.3881" stroke="#252525" stroke-width="1.5"/>
<line x1="234.836" y1="147.191" x2="351.786" y2="30.2409" stroke="#252525" stroke-width="1.5"/>
<line x1="234.836" y1="161.044" x2="351.786" y2="44.0937" stroke="#252525" stroke-width="1.5"/>
<line x1="234.836" y1="177.028" x2="351.786" y2="60.0777" stroke="#252525" stroke-width="1.5"/>
<line x1="234.836" y1="191.946" x2="351.786" y2="74.9962" stroke="#252525" stroke-width="1.5"/>
<line x1="234.836" y1="205.799" x2="351.786" y2="88.849" stroke="#252525" stroke-width="1.5"/>
<line x1="234.836" y1="219.652" x2="351.786" y2="102.702" stroke="#252525" stroke-width="1.5"/>
<line y1="-0.75" x2="165.392" y2="-0.75" transform="matrix(0.707107 0.707107 0.707107 -0.707107 235.367 103.232)" stroke="#252525" stroke-width="1.5"/>
<line y1="-0.75" x2="165.392" y2="-0.75" transform="matrix(0.707107 0.707107 0.707107 -0.707107 235.367 88.3138)" stroke="#252525" stroke-width="1.5"/>
<line y1="-0.75" x2="165.392" y2="-0.75" transform="matrix(0.707107 0.707107 0.707107 -0.707107 235.367 74.4609)" stroke="#252525" stroke-width="1.5"/>
<line y1="-0.75" x2="165.392" y2="-0.75" transform="matrix(0.707107 0.707107 0.707107 -0.707107 235.367 60.6081)" stroke="#252525" stroke-width="1.5"/>
<line y1="-0.75" x2="165.392" y2="-0.75" transform="matrix(0.707107 0.707107 0.707107 -0.707107 235.367 44.6241)" stroke="#252525" stroke-width="1.5"/>
<line y1="-0.75" x2="165.392" y2="-0.75" transform="matrix(0.707107 0.707107 0.707107 -0.707107 235.367 29.7057)" stroke="#252525" stroke-width="1.5"/>
<line y1="-0.75" x2="165.392" y2="-0.75" transform="matrix(0.707107 0.707107 0.707107 -0.707107 235.367 15.8528)" stroke="#252525" stroke-width="1.5"/>
<line y1="-0.75" x2="165.392" y2="-0.75" transform="matrix(0.707107 0.707107 0.707107 -0.707107 235.367 2)" stroke="#252525" stroke-width="1.5"/>
<line x1="351.52" y1="118.419" x2="468.47" y2="1.46968" stroke="#252525" stroke-width="1.5"/>
<line x1="351.52" y1="133.338" x2="468.47" y2="16.3881" stroke="#252525" stroke-width="1.5"/>
<line x1="351.52" y1="147.191" x2="468.47" y2="30.2409" stroke="#252525" stroke-width="1.5"/>
<line x1="351.52" y1="161.044" x2="468.47" y2="44.0937" stroke="#252525" stroke-width="1.5"/>
<line x1="351.52" y1="177.028" x2="468.47" y2="60.0777" stroke="#252525" stroke-width="1.5"/>
<line x1="351.52" y1="191.946" x2="468.47" y2="74.9962" stroke="#252525" stroke-width="1.5"/>
<line x1="351.52" y1="205.799" x2="468.47" y2="88.849" stroke="#252525" stroke-width="1.5"/>
<line x1="351.52" y1="219.652" x2="468.47" y2="102.702" stroke="#252525" stroke-width="1.5"/>
<line y1="-0.75" x2="165.392" y2="-0.75" transform="matrix(0.707107 0.707107 0.707107 -0.707107 352.05 103.232)" stroke="#252525" stroke-width="1.5"/>
<line y1="-0.75" x2="165.392" y2="-0.75" transform="matrix(0.707107 0.707107 0.707107 -0.707107 352.05 88.3138)" stroke="#252525" stroke-width="1.5"/>
<line y1="-0.75" x2="165.392" y2="-0.75" transform="matrix(0.707107 0.707107 0.707107 -0.707107 352.05 74.4609)" stroke="#252525" stroke-width="1.5"/>
<line y1="-0.75" x2="165.392" y2="-0.75" transform="matrix(0.707107 0.707107 0.707107 -0.707107 352.05 60.6081)" stroke="#252525" stroke-width="1.5"/>
<line y1="-0.75" x2="165.392" y2="-0.75" transform="matrix(0.707107 0.707107 0.707107 -0.707107 352.05 44.6241)" stroke="#252525" stroke-width="1.5"/>
<line y1="-0.75" x2="165.392" y2="-0.75" transform="matrix(0.707107 0.707107 0.707107 -0.707107 352.05 29.7057)" stroke="#252525" stroke-width="1.5"/>
<line y1="-0.75" x2="165.392" y2="-0.75" transform="matrix(0.707107 0.707107 0.707107 -0.707107 352.05 15.8528)" stroke="#252525" stroke-width="1.5"/>
<line y1="-0.75" x2="165.392" y2="-0.75" transform="matrix(0.707107 0.707107 0.707107 -0.707107 352.05 2)" stroke="#252525" stroke-width="1.5"/>
<line x1="468.47" y1="118.419" x2="585.419" y2="1.46968" stroke="#252525" stroke-width="1.5"/>
<line x1="468.47" y1="133.338" x2="585.419" y2="16.3881" stroke="#252525" stroke-width="1.5"/>
<line x1="468.47" y1="147.191" x2="585.419" y2="30.2409" stroke="#252525" stroke-width="1.5"/>
<line x1="468.47" y1="161.044" x2="585.419" y2="44.0937" stroke="#252525" stroke-width="1.5"/>
<line x1="468.47" y1="177.028" x2="585.419" y2="60.0777" stroke="#252525" stroke-width="1.5"/>
<line x1="468.47" y1="191.946" x2="585.419" y2="74.9962" stroke="#252525" stroke-width="1.5"/>
<line x1="468.47" y1="205.799" x2="585.419" y2="88.849" stroke="#252525" stroke-width="1.5"/>
<line x1="468.47" y1="219.652" x2="585.419" y2="102.702" stroke="#252525" stroke-width="1.5"/>
<line y1="-0.75" x2="165.392" y2="-0.75" transform="matrix(0.707107 0.707107 0.707107 -0.707107 469 103.232)" stroke="#252525" stroke-width="1.5"/>
<line y1="-0.75" x2="165.392" y2="-0.75" transform="matrix(0.707107 0.707107 0.707107 -0.707107 469 88.3138)" stroke="#252525" stroke-width="1.5"/>
<line y1="-0.75" x2="165.392" y2="-0.75" transform="matrix(0.707107 0.707107 0.707107 -0.707107 469 74.4609)" stroke="#252525" stroke-width="1.5"/>
<line y1="-0.75" x2="165.392" y2="-0.75" transform="matrix(0.707107 0.707107 0.707107 -0.707107 469 60.6081)" stroke="#252525" stroke-width="1.5"/>
<line y1="-0.75" x2="165.392" y2="-0.75" transform="matrix(0.707107 0.707107 0.707107 -0.707107 469 44.6241)" stroke="#252525" stroke-width="1.5"/>
<line y1="-0.75" x2="165.392" y2="-0.75" transform="matrix(0.707107 0.707107 0.707107 -0.707107 469 29.7057)" stroke="#252525" stroke-width="1.5"/>
<line y1="-0.75" x2="165.392" y2="-0.75" transform="matrix(0.707107 0.707107 0.707107 -0.707107 469 15.8528)" stroke="#252525" stroke-width="1.5"/>
<line y1="-0.75" x2="165.392" y2="-0.75" transform="matrix(0.707107 0.707107 0.707107 -0.707107 469 2)" stroke="#252525" stroke-width="1.5"/>
<line x1="585.153" y1="118.419" x2="702.103" y2="1.46968" stroke="#252525" stroke-width="1.5"/>
<line x1="585.153" y1="133.338" x2="702.103" y2="16.3881" stroke="#252525" stroke-width="1.5"/>
<line x1="585.153" y1="147.191" x2="702.103" y2="30.2409" stroke="#252525" stroke-width="1.5"/>
<line x1="585.153" y1="161.044" x2="702.103" y2="44.0937" stroke="#252525" stroke-width="1.5"/>
<line x1="585.153" y1="177.028" x2="702.103" y2="60.0777" stroke="#252525" stroke-width="1.5"/>
<line x1="585.153" y1="191.946" x2="702.103" y2="74.9962" stroke="#252525" stroke-width="1.5"/>
<line x1="585.153" y1="205.799" x2="702.103" y2="88.849" stroke="#252525" stroke-width="1.5"/>
<line x1="585.153" y1="219.652" x2="702.103" y2="102.702" stroke="#252525" stroke-width="1.5"/>
<line y1="-0.75" x2="165.392" y2="-0.75" transform="matrix(0.707107 0.707107 0.707107 -0.707107 585.683 103.232)" stroke="#252525" stroke-width="1.5"/>
<line y1="-0.75" x2="165.392" y2="-0.75" transform="matrix(0.707107 0.707107 0.707107 -0.707107 585.683 88.3138)" stroke="#252525" stroke-width="1.5"/>
<line y1="-0.75" x2="165.392" y2="-0.75" transform="matrix(0.707107 0.707107 0.707107 -0.707107 585.683 74.4609)" stroke="#252525" stroke-width="1.5"/>
<line y1="-0.75" x2="165.392" y2="-0.75" transform="matrix(0.707107 0.707107 0.707107 -0.707107 585.683 60.6081)" stroke="#252525" stroke-width="1.5"/>
<line y1="-0.75" x2="165.392" y2="-0.75" transform="matrix(0.707107 0.707107 0.707107 -0.707107 585.683 44.6241)" stroke="#252525" stroke-width="1.5"/>
<line y1="-0.75" x2="165.392" y2="-0.75" transform="matrix(0.707107 0.707107 0.707107 -0.707107 585.683 29.7057)" stroke="#252525" stroke-width="1.5"/>
<line y1="-0.75" x2="165.392" y2="-0.75" transform="matrix(0.707107 0.707107 0.707107 -0.707107 585.683 15.8528)" stroke="#252525" stroke-width="1.5"/>
<line y1="-0.75" x2="165.392" y2="-0.75" transform="matrix(0.707107 0.707107 0.707107 -0.707107 585.683 2)" stroke="#252525" stroke-width="1.5"/>
<line x1="701.836" y1="118.419" x2="818.786" y2="1.46968" stroke="#252525" stroke-width="1.5"/>
<line x1="701.836" y1="133.338" x2="818.786" y2="16.3881" stroke="#252525" stroke-width="1.5"/>
<line x1="701.836" y1="147.191" x2="818.786" y2="30.2409" stroke="#252525" stroke-width="1.5"/>
<line x1="701.836" y1="161.044" x2="818.786" y2="44.0937" stroke="#252525" stroke-width="1.5"/>
<line x1="701.836" y1="177.028" x2="818.786" y2="60.0777" stroke="#252525" stroke-width="1.5"/>
<line x1="701.836" y1="191.946" x2="818.786" y2="74.9962" stroke="#252525" stroke-width="1.5"/>
<line x1="701.836" y1="205.799" x2="818.786" y2="88.849" stroke="#252525" stroke-width="1.5"/>
<line x1="701.836" y1="219.652" x2="818.786" y2="102.702" stroke="#252525" stroke-width="1.5"/>
<line y1="-0.75" x2="165.392" y2="-0.75" transform="matrix(0.707107 0.707107 0.707107 -0.707107 702.367 103.232)" stroke="#252525" stroke-width="1.5"/>
<line y1="-0.75" x2="165.392" y2="-0.75" transform="matrix(0.707107 0.707107 0.707107 -0.707107 702.367 88.3138)" stroke="#252525" stroke-width="1.5"/>
<line y1="-0.75" x2="165.392" y2="-0.75" transform="matrix(0.707107 0.707107 0.707107 -0.707107 702.367 74.4609)" stroke="#252525" stroke-width="1.5"/>
<line y1="-0.75" x2="165.392" y2="-0.75" transform="matrix(0.707107 0.707107 0.707107 -0.707107 702.367 60.6081)" stroke="#252525" stroke-width="1.5"/>
<line y1="-0.75" x2="165.392" y2="-0.75" transform="matrix(0.707107 0.707107 0.707107 -0.707107 702.367 44.6241)" stroke="#252525" stroke-width="1.5"/>
<line y1="-0.75" x2="165.392" y2="-0.75" transform="matrix(0.707107 0.707107 0.707107 -0.707107 702.367 29.7057)" stroke="#252525" stroke-width="1.5"/>
<line y1="-0.75" x2="165.392" y2="-0.75" transform="matrix(0.707107 0.707107 0.707107 -0.707107 702.367 15.8528)" stroke="#252525" stroke-width="1.5"/>
<line y1="-0.75" x2="165.392" y2="-0.75" transform="matrix(0.707107 0.707107 0.707107 -0.707107 702.367 2)" stroke="#252525" stroke-width="1.5"/>
<line x1="818.52" y1="118.419" x2="935.47" y2="1.46968" stroke="#252525" stroke-width="1.5"/>
<line x1="818.52" y1="133.338" x2="935.47" y2="16.3881" stroke="#252525" stroke-width="1.5"/>
<line x1="818.52" y1="147.191" x2="935.47" y2="30.2409" stroke="#252525" stroke-width="1.5"/>
<line x1="818.52" y1="161.044" x2="935.47" y2="44.0937" stroke="#252525" stroke-width="1.5"/>
<line x1="818.52" y1="177.028" x2="935.47" y2="60.0777" stroke="#252525" stroke-width="1.5"/>
<line x1="818.52" y1="191.946" x2="935.47" y2="74.9962" stroke="#252525" stroke-width="1.5"/>
<line x1="818.52" y1="205.799" x2="935.47" y2="88.849" stroke="#252525" stroke-width="1.5"/>
<line x1="818.52" y1="219.652" x2="935.47" y2="102.702" stroke="#252525" stroke-width="1.5"/>
<line y1="-0.75" x2="165.392" y2="-0.75" transform="matrix(0.707107 0.707107 0.707107 -0.707107 819.05 103.232)" stroke="#252525" stroke-width="1.5"/>
<line y1="-0.75" x2="165.392" y2="-0.75" transform="matrix(0.707107 0.707107 0.707107 -0.707107 819.05 88.3138)" stroke="#252525" stroke-width="1.5"/>
<line y1="-0.75" x2="165.392" y2="-0.75" transform="matrix(0.707107 0.707107 0.707107 -0.707107 819.05 74.4609)" stroke="#252525" stroke-width="1.5"/>
<line y1="-0.75" x2="165.392" y2="-0.75" transform="matrix(0.707107 0.707107 0.707107 -0.707107 819.05 60.6081)" stroke="#252525" stroke-width="1.5"/>
<line y1="-0.75" x2="165.392" y2="-0.75" transform="matrix(0.707107 0.707107 0.707107 -0.707107 819.05 44.6241)" stroke="#252525" stroke-width="1.5"/>
<line y1="-0.75" x2="165.392" y2="-0.75" transform="matrix(0.707107 0.707107 0.707107 -0.707107 819.05 29.7057)" stroke="#252525" stroke-width="1.5"/>
<line y1="-0.75" x2="165.392" y2="-0.75" transform="matrix(0.707107 0.707107 0.707107 -0.707107 819.05 15.8528)" stroke="#252525" stroke-width="1.5"/>
<line y1="-0.75" x2="165.392" y2="-0.75" transform="matrix(0.707107 0.707107 0.707107 -0.707107 819.05 2)" stroke="#252525" stroke-width="1.5"/>
</svg>
